<?xml version="1.0" encoding="utf-8"?>
<!-- Generator: Adobe Illustrator 20.1.0, SVG Export Plug-In . SVG Version: 6.00 Build 0)  -->
<svg version="1.1" id="Layer_1" xmlns="http://www.w3.org/2000/svg" xmlns:xlink="http://www.w3.org/1999/xlink" x="0px" y="0px"
	 viewBox="0 0 40 40" style="enable-background:new 0 0 40 40;" xml:space="preserve">
<style type="text/css">
	.st0{fill:#B3B3B3;}
</style>
<path class="st0" d="M14,33c0,3.9,2.7,7,6,7s6-3.1,6-7c-3.4,0-6,0-6,0S17.4,33,14,33z"/>
<path class="st0" d="M31,14c0-6-4-8.7-7.2-9.9C23.9,3.8,24,3.5,24,3.2C24,1.4,22.2,0,20,0s-4,1.4-4,3.2c0,0.3,0.1,0.6,0.2,0.9
	C13,5.3,9,8,9,14c0,10-5,16.2-9,16.2c3.3,0,9.4,0,14,0c3.4,0,6,0,6,0s2.6,0,6,0c4.6,0,10.7,0,14,0C36,30.3,31,24.1,31,14z"/>
</svg>
